<svg width="600" height="376" xmlns="http://www.w3.org/2000/svg"> <rect width="100%" height="100%" fill="#FEFEFE" />
<line x1="70" y1="256" x2="530" y2="256" stroke="#9f9f9f" stroke-width="1" />
<rect x="70" y="87" width="460" height="169" fill="#FEFEFE" />
<text text-anchor="middle" x="300.0" y="20" font-family="'Helvetica Neue', Arial, sans-serif" font-weight="bold" font-size="22" fill="#000000">Pirate attacks globally</text>
<text text-anchor="middle" x="300.0" y="42" font-family="'Helvetica Neue', Arial, sans-serif" font-size="14" fill="#000000">correlates with</text>
<text text-anchor="middle" x="300.0" y="68" font-family="'Helvetica Neue', Arial, sans-serif" font-weight="bold" font-size="22" fill="#ba0f27">Google searches for &apos;download firefox&apos;</text>
<text text-anchor="start" x="23" y="301.3333333333333" font-family="'Helvetica Neue', Arial, sans-serif" font-size="14" fill="#9f9f9f">Global Pirate Attack Count &#183; Source: Statista</text>
<text text-anchor="start" x="23" y="324.66666666666663" font-family="'Helvetica Neue', Arial, sans-serif" font-size="14" fill="#9f9f9f">Relative volume of Google searches for &apos;download firefox&apos; (Worldwide,</text>
<text text-anchor="start" x="23" y="340.66666666666663" font-family="'Helvetica Neue', Arial, sans-serif" font-size="14" fill="#9f9f9f">without quotes) &#183; Source: Google Trends</text>
<text text-anchor="start" x="23" y="363.99999999999994" font-family="'Helvetica Neue', Arial, sans-serif" font-size="14" fill="#9f9f9f">2009-2022, r=0.974, r&#178;=0.949, p&lt;0.01  &#183;  tylervigen.com/spurious/correlation/2204</text>
<polyline points="5,296.66666666666663 20,296.66666666666663" style="fill:none;stroke:#000000;stroke-width:2.8" stroke-dasharray="3,1" />
<polygon points="1.7000000000000002,296.66666666666663 5,293.3666666666666 8.3,296.66666666666663 5,299.96666666666664" stroke="#F7F7F7" stroke-width="2.75" fill="#F7F7F7"  />
<polygon points="1.7000000000000002,296.66666666666663 5,293.3666666666666 8.3,296.66666666666663 5,299.96666666666664" stroke="#000000" stroke-width="2.75" fill="#000000"  />
<polyline points="5,319.99999999999994 20,319.99999999999994" style="fill:none;stroke:#ba0f27;stroke-width:2.8" />
<circle cx="5" cy="319.99999999999994" r="2.75" stroke="#F7F7F7" stroke-width="2.75" fill="#F7F7F7" />
<circle cx="5" cy="319.99999999999994" r="2.75" stroke="#ba0f27" stroke-width="2.75" fill="#ba0f27"  />
<text x="5" y="176.5" transform="rotate(270 5 171.5)" text-anchor="middle" fill="#000000" font-family="'Helvetica Neue', Arial, sans-serif" font-size="14" dominant-baseline="central">Number of Attacks</text>
<text x="171.5" y="-389" transform="rotate(90 100 100)" text-anchor="middle" fill="#ba0f27" font-family="'Helvetica Neue', Arial, sans-serif" font-size="14" dominant-baseline="central">Rel. search volume</text>
<line x1="71" y1="94.75" x2="528" y2="94.75" stroke="#F3F3F3" stroke-width="1" fill="#FEFEFE" />
<text text-anchor="end" x="62" y="99.41666666666667" font-family="'Helvetica Neue', Arial, sans-serif" font-size="12" fill="#000000">445</text>
<text text-anchor="start" x="538" y="99.41666666666667" font-family="'Helvetica Neue', Arial, sans-serif" font-size="12" fill="#ba0f27">77</text>
<line x1="71" y1="133.125" x2="528" y2="133.125" stroke="#F3F3F3" stroke-width="1" fill="#FEFEFE" />
<text text-anchor="end" x="62" y="137.79166666666666" font-family="'Helvetica Neue', Arial, sans-serif" font-size="12">362</text>
<text text-anchor="start" x="538" y="137.79166666666666" font-family="'Helvetica Neue', Arial, sans-serif" font-size="12" fill="#ba0f27">59</text>
<line x1="71" y1="171.5" x2="528" y2="171.5" stroke="#F3F3F3" stroke-width="1" fill="#FEFEFE" />
<text text-anchor="end" x="62" y="176.16666666666666" font-family="'Helvetica Neue', Arial, sans-serif" font-size="12">280</text>
<text text-anchor="start" x="538" y="176.16666666666666" font-family="'Helvetica Neue', Arial, sans-serif" font-size="12" fill="#ba0f27">41</text>
<line x1="71" y1="209.875" x2="528" y2="209.875" stroke="#F3F3F3" stroke-width="1" fill="#FEFEFE" />
<text text-anchor="end" x="62" y="214.54166666666666" font-family="'Helvetica Neue', Arial, sans-serif" font-size="12">198</text>
<text text-anchor="start" x="538" y="214.54166666666666" font-family="'Helvetica Neue', Arial, sans-serif" font-size="12" fill="#ba0f27">22</text>
<line x1="71" y1="248.25" x2="528" y2="248.25" stroke="#F3F3F3" stroke-width="1" fill="#FEFEFE" />
<text text-anchor="end" x="62" y="252.91666666666666" font-family="'Helvetica Neue', Arial, sans-serif" font-size="12">115</text>
<text text-anchor="start" x="538" y="252.91666666666666" font-family="'Helvetica Neue', Arial, sans-serif" font-size="12" fill="#ba0f27">4</text>
<polyline points="77.75,256 77.75,262" style="fill:none;stroke:#000000;stroke-width:1" />
<polyline points="146.1346153846154,256 146.1346153846154,262" style="fill:none;stroke:#000000;stroke-width:1" />
<polyline points="214.51923076923077,256 214.51923076923077,262" style="fill:none;stroke:#000000;stroke-width:1" />
<polyline points="282.9038461538462,256 282.9038461538462,262" style="fill:none;stroke:#000000;stroke-width:1" />
<polyline points="351.28846153846155,256 351.28846153846155,262" style="fill:none;stroke:#000000;stroke-width:1" />
<polyline points="419.6730769230769,256 419.6730769230769,262" style="fill:none;stroke:#000000;stroke-width:1" />
<polyline points="488.0576923076923,256 488.0576923076923,262" style="fill:none;stroke:#000000;stroke-width:1" />
<text text-anchor="middle" x="77.75" y="277" font-weight="bold" font-family="'Helvetica Neue', Arial, sans-serif" font-size="14">2009</text>
<text text-anchor="middle" x="146.1346153846154" y="277" font-weight="bold" font-family="'Helvetica Neue', Arial, sans-serif" font-size="14">2011</text>
<text text-anchor="middle" x="214.51923076923077" y="277" font-weight="bold" font-family="'Helvetica Neue', Arial, sans-serif" font-size="14">2013</text>
<text text-anchor="middle" x="282.9038461538462" y="277" font-weight="bold" font-family="'Helvetica Neue', Arial, sans-serif" font-size="14">2015</text>
<text text-anchor="middle" x="351.28846153846155" y="277" font-weight="bold" font-family="'Helvetica Neue', Arial, sans-serif" font-size="14">2017</text>
<text text-anchor="middle" x="419.6730769230769" y="277" font-weight="bold" font-family="'Helvetica Neue', Arial, sans-serif" font-size="14">2019</text>
<text text-anchor="middle" x="488.0576923076923" y="277" font-weight="bold" font-family="'Helvetica Neue', Arial, sans-serif" font-size="14">2021</text>
<polyline points="77.75,112.69621523440854 111.9423076923077,94.75" style="fill:none;stroke:#ba0f27;stroke-width:2.8"  />
<polyline points="111.9423076923077,94.75 146.1346153846154,123.15023999989104" style="fill:none;stroke:#ba0f27;stroke-width:2.8"  />
<polyline points="146.1346153846154,123.15023999989104 180.3269230769231,166.36006964355522" style="fill:none;stroke:#ba0f27;stroke-width:2.8"  />
<polyline points="180.3269230769231,166.36006964355522 214.51923076923077,190.23016255157205" style="fill:none;stroke:#ba0f27;stroke-width:2.8"  />
<polyline points="214.51923076923077,190.23016255157205 248.71153846153845,204.34309598497344" style="fill:none;stroke:#ba0f27;stroke-width:2.8"  />
<polyline points="248.71153846153845,204.34309598497344 282.9038461538462,215.14565793613716" style="fill:none;stroke:#ba0f27;stroke-width:2.8"  />
<polyline points="282.9038461538462,215.14565793613716 317.09615384615387,238.6671509343242" style="fill:none;stroke:#ba0f27;stroke-width:2.8"  />
<polyline points="317.09615384615387,238.6671509343242 351.28846153846155,240.23525464914658" style="fill:none;stroke:#ba0f27;stroke-width:2.8"  />
<polyline points="351.28846153846155,240.23525464914658 385.4807692307692,244.93956579361372" style="fill:none;stroke:#ba0f27;stroke-width:2.8"  />
<polyline points="385.4807692307692,244.93956579361372 419.6730769230769,246.85612306191916" style="fill:none;stroke:#ba0f27;stroke-width:2.8"  />
<polyline points="419.6730769230769,246.85612306191916 453.86538461538464,246.5076695084361" style="fill:none;stroke:#ba0f27;stroke-width:2.8"  />
<polyline points="453.86538461538464,246.5076695084361 488.0576923076923,248.25" style="fill:none;stroke:#ba0f27;stroke-width:2.8"  />
<polyline points="488.0576923076923,248.25 522.25,247.72729876172588" style="fill:none;stroke:#ba0f27;stroke-width:2.8"  />
<circle cx="77.75" cy="112.69621523440854" r="2.75" stroke="#F7F7F7" stroke-width="2.75" fill="#F7F7F7" />
<circle cx="77.75" cy="112.69621523440854" r="2.75" stroke="#ba0f27" stroke-width="2.75" fill="#ba0f27"  />
<circle cx="111.9423076923077" cy="94.75" r="2.75" stroke="#F7F7F7" stroke-width="2.75" fill="#F7F7F7" />
<circle cx="111.9423076923077" cy="94.75" r="2.75" stroke="#ba0f27" stroke-width="2.75" fill="#ba0f27"  />
<circle cx="146.1346153846154" cy="123.15023999989104" r="2.75" stroke="#F7F7F7" stroke-width="2.75" fill="#F7F7F7" />
<circle cx="146.1346153846154" cy="123.15023999989104" r="2.75" stroke="#ba0f27" stroke-width="2.75" fill="#ba0f27"  />
<circle cx="180.3269230769231" cy="166.36006964355522" r="2.75" stroke="#F7F7F7" stroke-width="2.75" fill="#F7F7F7" />
<circle cx="180.3269230769231" cy="166.36006964355522" r="2.75" stroke="#ba0f27" stroke-width="2.75" fill="#ba0f27"  />
<circle cx="214.51923076923077" cy="190.23016255157205" r="2.75" stroke="#F7F7F7" stroke-width="2.75" fill="#F7F7F7" />
<circle cx="214.51923076923077" cy="190.23016255157205" r="2.75" stroke="#ba0f27" stroke-width="2.75" fill="#ba0f27"  />
<circle cx="248.71153846153845" cy="204.34309598497344" r="2.75" stroke="#F7F7F7" stroke-width="2.75" fill="#F7F7F7" />
<circle cx="248.71153846153845" cy="204.34309598497344" r="2.75" stroke="#ba0f27" stroke-width="2.75" fill="#ba0f27"  />
<circle cx="282.9038461538462" cy="215.14565793613716" r="2.75" stroke="#F7F7F7" stroke-width="2.75" fill="#F7F7F7" />
<circle cx="282.9038461538462" cy="215.14565793613716" r="2.75" stroke="#ba0f27" stroke-width="2.75" fill="#ba0f27"  />
<circle cx="317.09615384615387" cy="238.6671509343242" r="2.75" stroke="#F7F7F7" stroke-width="2.75" fill="#F7F7F7" />
<circle cx="317.09615384615387" cy="238.6671509343242" r="2.75" stroke="#ba0f27" stroke-width="2.75" fill="#ba0f27"  />
<circle cx="351.28846153846155" cy="240.23525464914658" r="2.75" stroke="#F7F7F7" stroke-width="2.75" fill="#F7F7F7" />
<circle cx="351.28846153846155" cy="240.23525464914658" r="2.75" stroke="#ba0f27" stroke-width="2.75" fill="#ba0f27"  />
<circle cx="385.4807692307692" cy="244.93956579361372" r="2.75" stroke="#F7F7F7" stroke-width="2.75" fill="#F7F7F7" />
<circle cx="385.4807692307692" cy="244.93956579361372" r="2.75" stroke="#ba0f27" stroke-width="2.75" fill="#ba0f27"  />
<circle cx="419.6730769230769" cy="246.85612306191916" r="2.75" stroke="#F7F7F7" stroke-width="2.75" fill="#F7F7F7" />
<circle cx="419.6730769230769" cy="246.85612306191916" r="2.75" stroke="#ba0f27" stroke-width="2.75" fill="#ba0f27"  />
<circle cx="453.86538461538464" cy="246.5076695084361" r="2.75" stroke="#F7F7F7" stroke-width="2.75" fill="#F7F7F7" />
<circle cx="453.86538461538464" cy="246.5076695084361" r="2.75" stroke="#ba0f27" stroke-width="2.75" fill="#ba0f27"  />
<circle cx="488.0576923076923" cy="248.25" r="2.75" stroke="#F7F7F7" stroke-width="2.75" fill="#F7F7F7" />
<circle cx="488.0576923076923" cy="248.25" r="2.75" stroke="#ba0f27" stroke-width="2.75" fill="#ba0f27"  />
<circle cx="522.25" cy="247.72729876172588" r="2.75" stroke="#F7F7F7" stroke-width="2.75" fill="#F7F7F7" />
<circle cx="522.25" cy="247.72729876172588" r="2.75" stroke="#ba0f27" stroke-width="2.75" fill="#ba0f27"  />
<polyline points="77.75,111.03030303030303 111.9423076923077,94.75" style="fill:none;stroke:#000000;stroke-width:2.8" stroke-dasharray="3,1"  />
<polyline points="111.9423076923077,94.75 146.1346153846154,97.5409090909091" style="fill:none;stroke:#000000;stroke-width:2.8" stroke-dasharray="3,1"  />
<polyline points="146.1346153846154,97.5409090909091 180.3269230769231,163.59242424242424" style="fill:none;stroke:#000000;stroke-width:2.8" stroke-dasharray="3,1"  />
<polyline points="180.3269230769231,163.59242424242424 214.51923076923077,178.94242424242424" style="fill:none;stroke:#000000;stroke-width:2.8" stroke-dasharray="3,1"  />
<polyline points="214.51923076923077,178.94242424242424 248.71153846153845,187.78030303030303" style="fill:none;stroke:#000000;stroke-width:2.8" stroke-dasharray="3,1"  />
<polyline points="248.71153846153845,187.78030303030303 282.9038461538462,187.3151515151515" style="fill:none;stroke:#000000;stroke-width:2.8" stroke-dasharray="3,1"  />
<polyline points="282.9038461538462,187.3151515151515 317.09615384615387,212.89848484848483" style="fill:none;stroke:#000000;stroke-width:2.8" stroke-dasharray="3,1"  />
<polyline points="317.09615384615387,212.89848484848483 351.28846153846155,218.0151515151515" style="fill:none;stroke:#000000;stroke-width:2.8" stroke-dasharray="3,1"  />
<polyline points="351.28846153846155,218.0151515151515 385.4807692307692,208.2469696969697" style="fill:none;stroke:#000000;stroke-width:2.8" stroke-dasharray="3,1"  />
<polyline points="385.4807692307692,208.2469696969697 419.6730769230769,226.38787878787878" style="fill:none;stroke:#000000;stroke-width:2.8" stroke-dasharray="3,1"  />
<polyline points="419.6730769230769,226.38787878787878 453.86538461538464,211.03787878787878" style="fill:none;stroke:#000000;stroke-width:2.8" stroke-dasharray="3,1"  />
<polyline points="453.86538461538464,211.03787878787878 488.0576923076923,240.34242424242424" style="fill:none;stroke:#000000;stroke-width:2.8" stroke-dasharray="3,1"  />
<polyline points="488.0576923076923,240.34242424242424 522.25,248.25" style="fill:none;stroke:#000000;stroke-width:2.8" stroke-dasharray="3,1"  />
<polygon points="74.45,111.03030303030303 77.75,107.73030303030303 81.05,111.03030303030303 77.75,114.33030303030303" stroke="#F7F7F7" stroke-width="2.75" fill="#F7F7F7"  />
<polygon points="74.45,111.03030303030303 77.75,107.73030303030303 81.05,111.03030303030303 77.75,114.33030303030303" stroke="#000000" stroke-width="2.75" fill="#000000"  />
<polygon points="108.6423076923077,94.75 111.9423076923077,91.45 115.24230769230769,94.75 111.9423076923077,98.05" stroke="#F7F7F7" stroke-width="2.75" fill="#F7F7F7"  />
<polygon points="108.6423076923077,94.75 111.9423076923077,91.45 115.24230769230769,94.75 111.9423076923077,98.05" stroke="#000000" stroke-width="2.75" fill="#000000"  />
<polygon points="142.83461538461538,97.5409090909091 146.1346153846154,94.2409090909091 149.4346153846154,97.5409090909091 146.1346153846154,100.8409090909091" stroke="#F7F7F7" stroke-width="2.75" fill="#F7F7F7"  />
<polygon points="142.83461538461538,97.5409090909091 146.1346153846154,94.2409090909091 149.4346153846154,97.5409090909091 146.1346153846154,100.8409090909091" stroke="#000000" stroke-width="2.75" fill="#000000"  />
<polygon points="177.02692307692308,163.59242424242424 180.3269230769231,160.29242424242423 183.6269230769231,163.59242424242424 180.3269230769231,166.89242424242425" stroke="#F7F7F7" stroke-width="2.75" fill="#F7F7F7"  />
<polygon points="177.02692307692308,163.59242424242424 180.3269230769231,160.29242424242423 183.6269230769231,163.59242424242424 180.3269230769231,166.89242424242425" stroke="#000000" stroke-width="2.75" fill="#000000"  />
<polygon points="211.21923076923076,178.94242424242424 214.51923076923077,175.64242424242423 217.81923076923078,178.94242424242424 214.51923076923077,182.24242424242425" stroke="#F7F7F7" stroke-width="2.75" fill="#F7F7F7"  />
<polygon points="211.21923076923076,178.94242424242424 214.51923076923077,175.64242424242423 217.81923076923078,178.94242424242424 214.51923076923077,182.24242424242425" stroke="#000000" stroke-width="2.75" fill="#000000"  />
<polygon points="245.41153846153844,187.78030303030303 248.71153846153845,184.48030303030302 252.01153846153846,187.78030303030303 248.71153846153845,191.08030303030304" stroke="#F7F7F7" stroke-width="2.75" fill="#F7F7F7"  />
<polygon points="245.41153846153844,187.78030303030303 248.71153846153845,184.48030303030302 252.01153846153846,187.78030303030303 248.71153846153845,191.08030303030304" stroke="#000000" stroke-width="2.75" fill="#000000"  />
<polygon points="279.6038461538462,187.3151515151515 282.9038461538462,184.0151515151515 286.2038461538462,187.3151515151515 282.9038461538462,190.61515151515152" stroke="#F7F7F7" stroke-width="2.75" fill="#F7F7F7"  />
<polygon points="279.6038461538462,187.3151515151515 282.9038461538462,184.0151515151515 286.2038461538462,187.3151515151515 282.9038461538462,190.61515151515152" stroke="#000000" stroke-width="2.75" fill="#000000"  />
<polygon points="313.79615384615386,212.89848484848483 317.09615384615387,209.59848484848482 320.3961538461539,212.89848484848483 317.09615384615387,216.19848484848484" stroke="#F7F7F7" stroke-width="2.75" fill="#F7F7F7"  />
<polygon points="313.79615384615386,212.89848484848483 317.09615384615387,209.59848484848482 320.3961538461539,212.89848484848483 317.09615384615387,216.19848484848484" stroke="#000000" stroke-width="2.75" fill="#000000"  />
<polygon points="347.98846153846154,218.0151515151515 351.28846153846155,214.7151515151515 354.58846153846156,218.0151515151515 351.28846153846155,221.3151515151515" stroke="#F7F7F7" stroke-width="2.75" fill="#F7F7F7"  />
<polygon points="347.98846153846154,218.0151515151515 351.28846153846155,214.7151515151515 354.58846153846156,218.0151515151515 351.28846153846155,221.3151515151515" stroke="#000000" stroke-width="2.75" fill="#000000"  />
<polygon points="382.1807692307692,208.2469696969697 385.4807692307692,204.9469696969697 388.78076923076924,208.2469696969697 385.4807692307692,211.5469696969697" stroke="#F7F7F7" stroke-width="2.75" fill="#F7F7F7"  />
<polygon points="382.1807692307692,208.2469696969697 385.4807692307692,204.9469696969697 388.78076923076924,208.2469696969697 385.4807692307692,211.5469696969697" stroke="#000000" stroke-width="2.75" fill="#000000"  />
<polygon points="416.3730769230769,226.38787878787878 419.6730769230769,223.08787878787876 422.9730769230769,226.38787878787878 419.6730769230769,229.6878787878788" stroke="#F7F7F7" stroke-width="2.75" fill="#F7F7F7"  />
<polygon points="416.3730769230769,226.38787878787878 419.6730769230769,223.08787878787876 422.9730769230769,226.38787878787878 419.6730769230769,229.6878787878788" stroke="#000000" stroke-width="2.75" fill="#000000"  />
<polygon points="450.56538461538463,211.03787878787878 453.86538461538464,207.73787878787877 457.16538461538465,211.03787878787878 453.86538461538464,214.3378787878788" stroke="#F7F7F7" stroke-width="2.75" fill="#F7F7F7"  />
<polygon points="450.56538461538463,211.03787878787878 453.86538461538464,207.73787878787877 457.16538461538465,211.03787878787878 453.86538461538464,214.3378787878788" stroke="#000000" stroke-width="2.75" fill="#000000"  />
<polygon points="484.7576923076923,240.34242424242424 488.0576923076923,237.04242424242423 491.35769230769233,240.34242424242424 488.0576923076923,243.64242424242425" stroke="#F7F7F7" stroke-width="2.75" fill="#F7F7F7"  />
<polygon points="484.7576923076923,240.34242424242424 488.0576923076923,237.04242424242423 491.35769230769233,240.34242424242424 488.0576923076923,243.64242424242425" stroke="#000000" stroke-width="2.75" fill="#000000"  />
<polygon points="518.95,248.25 522.25,244.95 525.55,248.25 522.25,251.55" stroke="#F7F7F7" stroke-width="2.75" fill="#F7F7F7"  />
<polygon points="518.95,248.25 522.25,244.95 525.55,248.25 522.25,251.55" stroke="#000000" stroke-width="2.75" fill="#000000"  />
</svg>